<?xml version="1.0" encoding="UTF-8"?>
<svg version="1.1" viewBox="0 0 1600 1600" width="1280" height="1280" xmlns="http://www.w3.org/2000/svg">
<path transform="translate(0)" d="m0 0h1600v1600h-1600z" fill="#EAFCFE"/>
<path transform="translate(830,272)" d="m0 0h61l24 4 23 6 12 4 12 5 23 11 15 9 18 13 9 7v2l4 2 13 12 7 8 11 13 1 4h2l7 10 6 9 6 10 9 16 9 21 4 12 4 23v23l-3 19-1 9v19l4 20 4 12 9 15 7 10 12 13 6 7 5 5 11 13 3 9v7l-5 10-8 8-14 8-16 7-10 4-8 5-4 5-1 2v16l6 16-2 4-8 6-11 4-4 1 2 4 7 8v6l-12 16-3 6-1 6v11l3 15 4 18v15l-3 10-7 10-8 7-14 7-13 4-19 3-26-2-27-4-15-3h-6l-12 11-6 7-8 14-3 11v21l3 12 8 17 10 14 9 11v2l-14 9-16 8-15 6-16 4-18 3h-31l-22-3-17-4-25-9-22-10-19-11-21-13-17-13-19-12-22-12-21-8-19-5-15-2h-23l-18 2-27 5h-6l-3-2-1-6 4-10 7-9 9-10 15-14 13-11 9-7 14-11 20-15 14-10 18-13 19-13 14-10 22-15 23-16 12-9 10-9 8-8 10-13 6-9 7-17 2-5 3-13v-10l-4-15-7-12-2-4h-2l-5-5-10-7-16-8-10-3-5-2h-7l-10 3-7 3-19 4h-16l-12-4-10-8-6-9-5-10v-23l4-11h2l1-4 6-9 7-7 13-8 21-7 27-4 14-10 13-13 11-14 6-10 5-11 1-4v-23l-3-10-4-6-4-3-8 1-12 4-19 10-14 5-15 3h-25l-9-3-8-4-7-8-5-12v-17l5-15 10-18 12-13 8-10 11-9 16-12 15-10 18-10 16-7 26-10 28-8 29-6z" fill="#082BB3"/>
<path transform="translate(830,272)" d="m0 0h61l24 4 23 6 12 4 12 5 23 11 15 9 18 13 9 7v2l4 2 13 12 7 8 11 13 1 4h2l7 10 6 9 6 10 9 16 9 21 4 12 4 23v23l-3 19-1 9v19l4 20 4 12 9 15 7 10 12 13 6 7 5 5 11 13 3 9v7l-5 10-7 6v-2l-6-1-5 2-6-1v-2l-3-1 1-11v-3l-3-1-3-3-5-2-3-4-8-1-5 1-14 1-12 4-5 4h-2l-2 5-3 3 5 5-4 7-1 8 3 1-2 4-9-3-8-6v-2l-3-1-8-11-7-14-8-24-4-15-3-14-6-21-3-10v-3h-2l-2-8-4-9-13-29-9-16-10-15-9-11-9-10-8-8-18-13-13-8-6-3-6-2-17-9-22-7-16-3h-36l-29 5-40 10-8 1-12 4-19 10-14 5-15 3h-25l-9-3-8-4-7-8-5-12v-17l5-15 10-18 12-13 8-10 11-9 16-12 15-10 18-10 16-7 26-10 28-8 29-6z" fill="#1F94E6"/>
<path transform="translate(827,433)" d="m0 0h21l16 3 13 5 13 8 10 8 12 12 6 8v2h2l4 6v3h2l6 11 10 19 12 28 15 40 11 31 8 20v6l-4 1-5-3h-7l-1 4 3 1-1 14h-8l-4-4-5-2v-2l-6 1v5l-7-2-9-5-7-1-16-9-10-8-4-6v-4h-2l-7-9-4-10-5-19-6-25-5-16-8-18-7-11-8-8-16-8-5-1h-14l-15 6-10 9-8 14-1 4-1 13-1 2 4 2 7 4 14 10 22 22 2 5 3 1 14 20 14 27 8 22 2 8 3 9 3 12 4 20 5 24 7 23 5 12 7 14 10 16 7 9 9 10 11 12 8 6 17 12 20 12 21 11 26 11 12 5v2l4 1-15-1-28-4-25-5-30-9-22-10-15-9-13-10-10-9-7-7-10-13-9-15-7-15-5-13-4-10-2-9-3-9-8-33-6-24-7-19-8-15-11-12-7-6-16-8-14-4-5-1h-41v2l-16 4-7 3-19 4h-16l-12-4-10-8-6-9-5-10v-23l4-11h2l1-4 6-9 7-7 13-8 21-7 27-4 14-10 13-13 11-14 6-10 5-11 1-4 1-18h1v11l19-10 19-7 20-6z" fill="#1483ED"/>
<path transform="translate(813,407)" d="m0 0h36l20 4 18 6 17 9 12 5 16 10 12 9 10 9 9 9 11 14 10 15 12 22 11 26 4 8v6h2l8 26 4 15 3 15 8 26 6 14 7 11 4 5 10 8 9 4 1-4-2-1v-8l4-8-5-4 3-5 10-8 12-4 14-1 8-1 6 2 3 4 7 3 3 3 1 9-2 5 4 1-1 2h6l7-2 1 2h3l-1 4-14 8-16 7-10 4-8 5-4 5-1 2v16l6 16-2 4-8 6-11 4-4 1 2 4 7 8v6l-3 3-5-1-2 5-6-1-6 2-3-8 1-9-5-1-13 2-18 3-17 2h-9l-13-2-10-5-10-9-5-8-2-1 1 2v6l-2 2-14-1-7-2h-5l-2 1-5-1-14-1-9-2-1 2-5-2-10-6-7-6-1-2-4 1-1 3-4-15-3-17-7-30-3-7-3-12-8-20-12-23-12-17-6-7-3-4v-2l-4-2-16-16-13-9-7-4-4-3 1-15 3-7 6-11 7-7 8-5 11-4h14l10 3 11 6 10 10 8 14 8 19 7 27 5 22 6 16 3 4v2l3 1v2h2l2 4v2l5 6 14 9 9 5 9 2 12 6 1-4v-1h7v2l6 2 3 3 8 1v-14l-2-1 1-4 7-1 5 3h3v-6l-12-31-12-34-12-31-7-16-10-21-8-13v-3h-2l-4-7v-2h-2l-8-11-13-13-10-7-10-6-13-5-16-3h-21l-20 4-26 9-17 8-5 3h-2l-2-16-3-10-4-6-3-2v-2l34-9 27-5z" fill="#155AC9"/>
<path transform="translate(830,272)" d="m0 0h61l24 4 23 6 12 4 12 5 23 11 15 9 18 13 9 7v2l4 2 13 12 7 8 11 13 1 4h2l7 10 6 9 6 10 9 16 9 21 4 12 3 17v13l-5-5-14-24-15-25-9-12-5-5-8-7-13-8-12-4-13-2-39-1-1-1-18-2-15-4-12-5-9-6-8-8-7-6-3-5-4-4-7-8-9-8-6-4-13-6-5-1h-29l-21 7-15 7-15 8h-2l1 3-5 4h-2v5l2 3 2 16 5 5 7 4 19 4 10 4 4 2 5 1h8l2 3-1 4-12 3-6 2v2h30v1l-33 1-29 5-40 10-8 1-12 4-19 10-14 5-15 3h-25l-9-3-8-4-7-8-5-12v-17l5-15 10-18 12-13 8-10 11-9 16-12 15-10 18-10 16-7 26-10 28-8 29-6z" fill="#1584ED"/>
<path transform="translate(585,429)" d="m0 0h12l6 3 5 6 3 6v6l11 2 60 15 4-2 6-7 7-4 12-1 9 3 8 7 5 10v10l-3 8-5 6-11 6h-11l-12-6-2-4-9 3-5 3-10 4-7 4-7 3-21 10-28 14-1 12-6 8-8 5-3 1-1 2-1 21-3 25-1 16 9 6 4 8 2 8 25 7 47 14 23 7 2 1 6-9 10-7 12-2 10 2 6 3 6 5 6 10 2 6v10l-6 12-5 5-7 5-6 2h-12l-15-6-14 12-13 12-8 7-10 9-11 10-11 9-2 4 2 4v10l-3 6-8 7-5 2h-7l-10-5-5-7-1-3v-11l6-9 4-3-4-16-8-29-14-50-3-7-11-2-7-8-2-5-2-1h-19l-9 1-5 1-6 5-2 1h-7l-6-4-2-4v-8l5-6 4-2h7l6 5 2 3h34l3-8 8-6 6-2 4-36 3-29-5-2-7-7-1-5-46 1-2 4-7 4-6-1-6-4-2-3v-10l7-6 8-1 6 4 2 4h24l21-1 3-7 5-5 9-5 3-21 1-17 2-12-9-6-5-9v-9l4-8 8-6z" fill="#155CCA"/>
<path transform="translate(827,433)" d="m0 0h21l16 3 13 5 13 8 10 8 12 12 6 8v2h2l4 6v3h2l6 11 10 19 12 28 15 40 11 31 8 20v6l-4 1-5-3h-7l-1 4 3 1-1 14h-8l-4-4-5-2v-2l-6 1v5l-7-2-9-5-7-1-16-9-10-8-4-6v-4h-2l-7-9-4-10-5-19-6-25-5-16-8-18-7-11-8-8-16-8-5-1h-14l-15 6-10 9-8 14-1 4-1 13-1 2 2 1-4-1-19-8-22-6-17-3h-7v-3l13-10 12-12 11-14 6-10 5-11 1-4 1-18h1v11l19-10 19-7 20-6z" fill="#1972D4"/>
<path transform="translate(844,894)" d="m0 0h24l43 5 13 3h3l-2 5-6 10-4 13v21l3 12 8 17 10 14 9 11v2l-14 9-16 8-15 6-16 4-18 3h-31l-22-3-17-4-25-9-22-10-19-11-13-8 1-4 3-3h2l2-5 10-18 11-15 9-11 10-10 13-10 13-8 15-7 21-5z" fill="#082BB3"/>
<path transform="translate(764,647)" d="m0 0 6 1 11 10 9 12 11 21 9 25 15 46 8 20 9 20 9 15 8 11 9 11 17 17-5 2-9-3-2 1 1 5 10 5 6 4h3v2l-13-1-15-2-37-2-4-3-2-2-12-3-9-3-15-6-17-9-26-13-5 1-5 3-2 2-6-1-2 4-6 5-4 5-9 4-5-5-3-2-6-1-1 9-1 2h3l-1 3-3 1h-3l-2 3 3 2-2 4-4 4-7-1-6-4-9-5-16-11-5-2-7 1-8 2-5 3-6 2v2l-6 3-3-1-3 1-2-1 17-13 14-10 18-13 19-13 14-10 22-15 23-16 12-9 10-9 8-8 10-13 6-9 7-17 2-5 3-13v-10l-4-15-7-12z" fill="#155AC9"/>
<path transform="translate(736,827)" d="m0 0 5 1 16 8 15 8 17 8 16 5 7 2 9 4 3 3 24 1 5 1v1l-26 1-18 2-21 6-17 8-16 11-12 11-11 12-7 10-12 19-12 24-1 6-4-2-15-10-17-10-16-8-15-6-17-5-20-3h-23l-18 2-27 5h-6l-3-2-1-6 4-10 7-9 9-10 15-14 13-11 9-7 14-11 9-4v2l5-2h3v-2l14-7 8-2 6 1 9 5 15 10 9 5 8 3 4-8-2-3 5-4 2 1 3-3h-3v-6l2-5h6l5 5 4 2 9-5 7-8 4-4h6l4-4z" fill="#082BB3"/>
<path transform="translate(830,272)" d="m0 0h61l24 4 23 6 12 4 12 5 23 11 15 9 18 13 9 7v2l4 2 13 12 7 8 11 13 1 4h2l7 10 3 4v2l-5 1-4-4v-2h-2l-6-7-8-5-19-7-7-2v-2l-13-1-40-7-18-5-21-9-15-9-18-13-8-6-11-7-12-6-9-2h-23l-16 4-18 8-16 9-15 10-19 12-16 8-16 5-7 1h-27l-26-3-4-2 14-12 17-12 14-9 16-9 16-7 26-10 28-8 29-6z" fill="#6EC2F5"/>
<path transform="translate(705,527)" d="m0 0 4 1 13 1 24 6 17 6 10 5 5 2 7 4 14 10 22 22 2 5 3 1 14 20 14 27 8 22 2 8 3 9 3 12 4 20 5 24 7 23 5 12 7 14-1 3-9-14-4-8-3-9v-3l-3-1-3-10-5-14-8-34-10-27-5-11-4-7-5-5-1 4-5 5v9l3 9-1 3-1-1-1 6-2-3-1-8-1-3h-2l-6-16-8-14-5-5-6-7-3-1v-2l-6-2v-2h-4v-2l-6-1-12-5-8-1-1-1h-25l-19 2-9 3h-9l1-5 3-5 2-6v-11l-3-9-8-9-9-4h-16l-10 6-1 3h-2l-2 5-3 10v10l3 8-1 4-4-1-8-9-5-5h-3l-1 5-2 4h-3l-2 2-1-1v-23l4-11h2l1-4 6-9 7-7 13-8 21-7z" fill="#22A5F6"/>
<path transform="translate(640,1112)" d="m0 0h78l8 5 4 5 2 4v94l-7 8-6 4h-81l-6-4-6-7-1-3v-91l4-8 7-6z" fill="#1888EE"/>
<path transform="translate(1071,527)" d="m0 0h6l3 3 5 4 4 4 1 9 2 11 2 4 6 1v-12l-2-7-1-3 2-14 2 2h3l1 13 2 4 3 17 4 12 9 15 7 10 12 13 6 7 5 5 11 13 3 9v7l-5 10-7 6v-2l-6-1-5 2-6-1v-2l-3-1 1-11v-3l-3-1-3-3-5-2-3-4-8-1-5 1-14 1-12 4-5 4h-2l-2 5-3 3 5 5-4 7-1 8 3 1-2 4-9-3-8-6v-2l-3-1-3-5-7-14v-3h-2l-7-24-5-21v-11l-2-10-1-4v-7l2-4 3 1 1-5 3 1-1-7 6-5 3-7 4-3h2v-2l9-3-13-1 3-2 11-3z" fill="#1585EE"/>
<path transform="translate(870,1112)" d="m0 0h92l6 3 7 8 1 2v56l-7 8-6 3h-3l3 7 9 13 7 10 7 9v1h-36l-13-18-8-12-7-9-24-1v40h-29v-119z" fill="#1888EE"/>
<path transform="translate(270,1112)" d="m0 0h92l7 4 5 5 2 5v54l-4 6-9 6h-4l5 9 8 11 11 16 2 4h-35l-13-18-8-12-7-9-24-1v40h-28z" fill="#1787EE"/>
<path transform="translate(813,407)" d="m0 0h36l20 4 18 6 17 9 10 8 13 12 7 8 12 17 9 16 12 27 12 36 10 35 10 37 13 38 6 13 6 11 8 11 16 10 6 2 15 2h14l11-3-2 4-13 5-10 2h-14l-13-4-11-6-10-9-11-14-12-22-7-15-13-33-11-31-16-42-7-16-10-21-8-13v-3h-2l-4-7v-2h-2l-8-11-13-13-10-7-10-6-13-5-16-3h-21l-20 4-26 9-17 8-5 3h-2l-2-16-3-10-4-6-3-2v-2l34-9 27-5z" fill="#082BB3"/>
<path transform="translate(585,429)" d="m0 0h12l6 3 5 6 3 6v6l11 2 60 15 4-2 6-7 7-4 12-1 9 3 8 7 5 10v10l-3 8-5 6-11 6h-11l-12-6-2-4-9 3-5 3-10 4-7 4-7 3-21 10-28 14-1 12-6 8-8 5h-3l2-5 2-7-2-3h2l-1-9-1-3-1-1-15 5-2 4-2 3-3 4v-3l-46 1-2 4-7 4-6-1-6-4-2-3v-10l7-6 8-1 6 4 2 4h24l21-1 3-7 5-5 9-5 3-21 1-17 2-12-9-6-5-9v-9l4-8 8-6z" fill="#1A75D6"/>
<path transform="translate(827,433)" d="m0 0h21l16 3 13 5 13 8 10 8 12 12 6 8v2h2l4 6v3h2l6 11 10 19 12 28 8 21v5l-2-2-4-7-9-12-10-14-7-9-9-10-7-8-9-9-8-7-17-12-19-10-16-5-6-1h-19l-13 4-8 4-10 9-6 9-5 13-2 11-1 6v22l-1 2 2 1-4-1-19-8-22-6-17-3h-7v-3l13-10 12-12 11-14 6-10 5-11 1-4 1-18h1v11l19-10 19-7 20-6z" fill="#1585ED"/>
<path transform="translate(518,1112)" d="m0 0h89v25l-73 1v20l1 1 61 1 7 3 6 7 2 6v43l-4 6-7 6-2 1h-91v-24l1-1 71-1 1-1v-17l-2-3-63-1-7-5-4-8v-47l6-8z" fill="#1887EE"/>
<path transform="translate(1238,1112)" d="m0 0h88l1 1v24l-73 1-1 1v16l1 4 64 1 5 3 6 7 2 5v43l-5 8-6 5-3 1h-90v-24l1-1 72-1v-19l-2-2-63-1-8-6-3-7v-47l6-8 4-3z" fill="#1887EE"/>
<path transform="translate(394,1112)" d="m0 0h98v25h-70v23h53v24h-53l1 23h69v25h-98z" fill="#1787EE"/>
<path transform="translate(1114,1112)" d="m0 0h98v25h-70v23h53v24l-52 1-1 23 7-1h63v25h-98z" fill="#1787EE"/>
<path transform="translate(748,1112)" d="m0 0h28l1 1v94l47-1 1-1 1-93h28v108l-6 8-6 4h-81l-8-5-5-7-1-11v-90z" fill="#1887EE"/>
<path transform="translate(1007,1112)" d="m0 0h78l6 3 7 8 1 2v24h-29l-1-12-47 1v68l47 1 1-12h29v25l-6 8-6 4-74 1-9-1-2-1v-2l-4-2-5-6v-97l3-5 7-6z" fill="#1787EE"/>
<path transform="translate(590,652)" d="m0 0 11 3 49 15 37 11 1 1 1 12 3 7v5l-13 12-14 12-15 14-11 9-7 7-8 7h-3l-3-2-9-1-3-8-21-75-4-15v-6z" fill="#E9FCFE"/>
<path transform="translate(827,869)" d="m0 0h26l22 2 38 7 25 6 2 4-2 4-10 10-6 1-11-3-43-5h-24l-22 3-18 5-17 8-17 12-13 12-9 10-9 13-7 11-9 16h-2l-1 3h-2v3l-4-1-14-10-1-3 4-10 10-20 13-20 8-10 9-10 8-8 17-12 15-8 18-6 15-3z" fill="#050192"/>
<path transform="translate(669,558)" d="m0 0h16l10 5 8 9 3 9v11l-4 10-3 6 13-2 5-2 19-2h25l1 1 11 2 11 5 4 1v2h4v2l4 1 2 1v2l4 1 5 6 5 5 8 13 5 12 4 13 5 24 7 40 6 25 3 10v6l-2-3-5-13-2-9-3-9-8-33-6-24-7-19-8-15-11-12-7-6-16-8-14-4-5-1h-41v2l-16 4-7 3-19 4h-16l-12-4-10-8-6-9-3-6v-7l1 2h3v-5l3-4h2l1-2v2l4 2 7 9 3 3h3l-1-5-2-6v-10l3-10 3-5h2l1-4z" fill="#1A72D5"/>
<path transform="translate(838,306)" d="m0 0h17l12 3 16 8 17 13 12 9 18 11 15 7 23 7 18 3 13 1 26 6 15 5 15 8 9 7 11 11 15 24 11 19 4 3 2 5 2 11v13l-5-5-14-24-15-25-9-12-5-5-8-7-13-8-12-4-13-2-39-1-1-1-18-2-15-4-12-5-9-6-8-8-7-6-3-5-4-4-7-8-9-8-6-4-13-6-5-1h-29l-21 7-15 7-27 14-16 8-16 6-13 3h-5l1-2 8-2 13-5 9-5h3v-2l8-5h3v-2h3v-2l17-11 10-6 16-8 17-6z" fill="#082CB3"/>
<path transform="translate(788,287)" d="m0 0h14l2 1v7l-7 11-2 5-15 9-17 11-13 8-16 8-14 4-7 1h-27l-26-3-4-2 14-12 17-12 14-9 16-9 16-7 10-4h7l21-4 5-1z" fill="#91CAF5"/>
<path transform="translate(901,275)" d="m0 0h10l24 6 15 5 12 5 23 11 15 9 18 13 9 7v2l4 2 13 12 7 8 11 13 1 4h2l7 10 3 4v2l-5 1-4-4v-2h-2l-6-7-8-5-19-7-7-2v-2l-13-1-40-7-18-5-12-5-2-2v-4l9-4 7-10 6-9v-8l-4-4-2-1v-2l-9-3-14-7-7-4-10-5-14-2z" fill="#47BBF7"/>
<path transform="translate(843,435)" d="m0 0h17l10 3 14 7 14 10 14 14 6 8v2h2l4 6v3h2l6 11 10 19 12 28 8 21v5l-2-2-4-7-9-12-10-14-7-9-9-10-7-8-9-9-8-7-17-12-19-10-16-5-11-2-14-1-6-3 1-5 5-6 6-3 1-1 13-2-2-3 1-3h2v-2z" fill="#1E94E6"/>
<path transform="translate(609,457)" d="m0 0 7 1 44 11 21 6 2 2 1 8-10 6-16 7-15 8-8 4-7 3-17 8-12 6-4-2-7-4v-15l3-20 1-17 3-2 6-2 5-4z" fill="#E9FCFE"/>
<path transform="translate(764,647)" d="m0 0 6 1 11 10 9 12 11 21 9 25 5 15v8l-5-1-1-8-5-2h-2l4 6-11-2h-3-7l-4 3h-2l-2 5-4 8-4 6-5 1-9 22-7 13-2 1-4-5-11-2h-9l-8 4-3 2h-5v-2h-2l2-4h3l4-4 1-3h2v-2l4-1 2-6 14-11 13-13 10-13 6-9 7-17 2-5 3-13v-10l-4-15-7-12z" fill="#1A73D5"/>
<path transform="translate(838,641)" d="m0 0 4 2 5 7 5 13 5 12 6 16 5 21 4 15 4 12 3 10 2 1 4 12 8 15 4 6 2-1 4 7 2 3-1 4-9-9-10-14-11-16-3-4-4 1-2 2h-7v8l2 9v7l-4-2-3-5v-2h-2v-3h-2l-6-21-6-30-7-40-3-12 1-3v2l2 1 1 8 2-4v-4l-2-8v-8l4-2z" fill="#1E94E7"/>
<path transform="translate(663,1137)" d="m0 0h37l3 2v67l-1 1h-47l-1-29v-40z" fill="#EAFCFE"/>
<path transform="translate(503,631)" d="m0 0h7l6 5 2 3 30 1 5 1 1 8h6l4 2v2l5 2 7 3 2-1v4l-3 1 1 3 2-1 2-5h1l3 15 14 50 11 39 9 1 5 3 7-7 8-7 10-9 8-7 10-6 5 1-1 3-8 7-10 9-11 10-11 9-2 4 2 4v10l-3 6-8 7-5 2h-7l-10-5-5-7-1-3v-11l6-9 4-3-4-16-8-29-14-50-3-7-11-2-7-8-2-5-2-1h-19l-9 1-5 1-6 5-2 1h-7l-6-4-2-4v-8l5-6z" fill="#0A33B7"/>
<path transform="translate(612,450)" d="m0 0 10 2 60 15 4-2 6-7 7-4 12-1 9 3 8 7 5 10v10l-3 8-5 6-11 6h-11l-12-6-2-4-9 3-5 3-10 4-7 4-7 3-21 10-16 8-4 1-2-4 1-1-2-2 23-11 15-7 15-8 18-8 5-3-1-8-3-2-22-6-21-5-23-6z" fill="#1787ED"/>
<path transform="translate(705,527)" d="m0 0 4 1 13 1 24 6 17 6 10 5 5 2 7 4 14 10 22 22 2 5 3 1 14 20 14 27 8 22 2 8 3 9 3 12 4 20 5 24 7 23 5 12 7 14-1 3-9-14-4-8-9-28-7-27-4-17-11-33-9-20-12-20-10-14-9-10-7-8-8-8-13-10-20-11-20-8-17-5-12-2h-21l-19 1 2-5 2-4-2-2z" fill="#45BAF7"/>
<path transform="translate(891,311)" d="m0 0 7 3 13 10 16 10 16 8 16 6 23 5 29 5 13 2v2l10 2 16 6 10 7 4 4v2h2l2 5h7l4 4 5 9 9 16 9 21 4 12-1 4-2-4-4-4-13-22-12-19-13-13-15-9-14-6-24-6-9-2-20-2-15-3-22-7-19-10-18-12-11-9-6-4v-3h3l-1-3z" fill="#1A73D5"/>
<path transform="translate(656,378)" d="m0 0h14l10 5 5 5 1 5h2l6 17 3 4 3 2-7 3-2-1-2 6-7 7-9 3-5 2h-12l-9-2-6 1-7-4h-3-4l-4-9v-6l2 3 1 5 3 1 1-3-3-1h2v-3l7 1-1-4v-27l5-2 1 2 8-7z" fill="#165FCC"/>
<path transform="translate(1114,639)" d="m0 0 8 1 4 5 7 3 3 3 1 9-2 5 4 1-1 2h6l7-2 1 2h3l-1 4-14 8-13 6h-10l-12 2h-12l-20-3-3-2h2l1-4-2-1v-8l4-8-5-4 3-5 10-8 12-4 14-1z" fill="#1A73D5"/>
<path transform="translate(836,294)" d="m0 0h23l11 3 14 7 10 7-2 2-1 5 1 2-5 1-11-7-12-5-9-2h-17l-13 2-12 4-28 14-18 12h-2v2h-3v2l-9 5h-2v2l-19 9-8 3-20 3h-9l-35-4-8-2-2-5 6-6 30 3h27l15-3 15-6 14-8 17-11 19-12 17-9 16-6z" fill="#1E93E6"/>
<path transform="translate(585,530)" d="m0 0 3 1-1 2 2 8-2 4 2 4-2 5-4 8-1 21-3 25-1 16 9 6 4 8 2 8 25 7 47 14 23 7 1 4-3 2-9-1-83-25-4-1-8 7h-2l-2 5h-2l-2-4h4l-3-3-6-2-5-3v-2l-10-2-2-5 1-3h-5l4-2 3-8 8-6 6-2 4-36 3-29-5-2-7-7v-6l2-2 4-5 8-4z" fill="#155CCA"/>
<path transform="translate(928,823)" d="m0 0 4 2 11 9 17 12 20 12 21 11 26 11 12 5v2l4 1-15-1-28-4-25-5-30-9-22-10-10-6-1-2 11 2 1 2h4l-4-8 1-8 4-5 4-2-2-6-3-1z" fill="#0E7AF0"/>
<path transform="translate(298,1137)" d="m0 0h47l2 2v27l-1 1h-48z" fill="#EAFCFE"/>
<path transform="translate(898,1137)" d="m0 0h47l2 2v27l-3 1h-46z" fill="#E8FBFE"/>
<path transform="translate(658,384)" d="m0 0h8l10 4 5 5 2 5v14l-6 8-8 5-3 1h-7l-10-5-4-5-2-4v-16l8-9z" fill="#E7FBFE"/>
<path transform="translate(585,429)" d="m0 0h12l6 3 5 6 3 6 3 13-6 2-4 5-4 3-7 2-4 6-2 1-1 5-2 5h-1l1-12 1-6-9-6-5-9v-9l4-8 8-6z" fill="#1A74D5"/>
<path transform="translate(675,564)" d="m0 0h6l9 4 6 5 2 5v14l-7 9-8 4h-9l-9-4-6-7-1-2v-13l3-7 5-5z" fill="#E9FCFE"/>
<path transform="translate(534,467)" d="m0 0h9l8 4 5 7 1 3v10l-6 9-9 5h-7l-10-6-5-8v-12l4-6 5-4z" fill="#155DCA"/>
<path transform="translate(669,558)" d="m0 0h16l10 5 8 9 3 9v11l-3 9h-3l-6 7-6 3-4 1h-14l-8-4-7-8-3-1-2-6v-10l3-10 3-5h2l1-4zm6 6-10 4-5 5-2 6v13l6 8 7 4 3 1h9l9-5 6-8v-14l-3-6-6-5-8-3z" fill="#137FF0"/>
<path transform="translate(585,530)" d="m0 0 3 1-1 2 2 8-2 4 2 4-2 5-4 8-1 21-3 25-2 16-1-2-4-1 1-13-1-1v5h-1l1-14 4-40-5-2-7-7v-6l2-2 4-5 8-4z" fill="#155BC9"/>
<path transform="translate(563,367)" d="m0 0h8l5 3 5 6 1 2v7l-4 6-5 4-2 1h-8l-7-5-3-6v-7l3-6 5-4z" fill="#1A73D5"/>
<path transform="translate(541,722)" d="m0 0 9 1 6 5 3 7-1 7-6 7-5 2-9-1-6-5-2-4v-9l4-6 4-3z" fill="#0931B5"/>
<path transform="translate(444,583)" d="m0 0h9l6 4 4 7v7l-4 6-5 4h-10l-6-4-3-5v-10l4-6z" fill="#0930B5"/>
<path transform="translate(1017,327)" d="m0 0 6 1 4 3v2l4 2 13 12 7 8 11 13 1 4h2l7 10 3 4v2l-5 1-4-4v-2h-2l-6-7-8-5-19-7 3-2 5-2v-5l-7-11-9-10-5-4z" fill="#29A8F6"/>
<path transform="translate(504,528)" d="m0 0 7 1 5 4 2 4 20 1 7 4v1l-27 1-3 5-7 4-6-1-6-4-2-3v-10l7-6z" fill="#155DCA"/>
<path transform="translate(613,652)" d="m0 0 11 3 41 12 23 7 1 4-3 2-9-1-33-10-27-8 2-2-5-2-6-1v-3z" fill="#1970D3"/>
<path transform="translate(503,631)" d="m0 0h7l6 5 2 3 13 1-3 1 1 4 2 2-9 1-5 1-6 5-2 1h-7l-6-4-2-4v-8l5-6z" fill="#0A33B6"/>
<path transform="translate(663,495)" d="m0 0h4v2l3 1v3l-12 6-7 3-21 10-16 8-4 1-2-4 1-1-2-2 23-11 15-7 15-8z" fill="#1583F2"/>
<path transform="translate(683,388)" d="m0 0h2l1 5h2l6 17 3 4 3 2-7 3-2-1-2 6-7 7-12 4h-13l-12-6-6-7-2-4 1-3 6 10 12 6h13l10-5 4-4-1-31z" fill="#1355C7"/>
<path transform="translate(912,507)" d="m0 0 5 2 10 9-1-3v-7l1 2 6 2 2 5 2 1 5 8 2 7-1 5 5 9 7 9v2h2l1-2 4 11v5l-2-2-4-7-9-12-10-14-7-9-9-10-7-8z" fill="#1584ED"/>
<path transform="translate(637,555)" d="m0 0 1 2-1 4v20l4 10-1 2-5-3h-2l-1 5-2 4h-3l-2 2-1-1v-23l4-11h2l1-4 4-6z" fill="#198AEE"/>
<path transform="translate(580,562)" d="m0 0h2v21l-3 25-2 16-1-2-4-1 1-13-1-1v5h-1l1-14 2 1 3-31 1-5z" fill="#1B76D6"/>
<path transform="translate(531,640)" d="m0 0h17l5 1 1 8h6l4 2v2l5 2 7 3 2-1v4l-3 1v3l-3-2-11-2-7-8-2-5-2-1-22-1v-5z" fill="#0A32B6"/>
<path transform="translate(563,367)" d="m0 0h8l5 3 5 6 1 2v7l-4 6-2 2h-3v-3l4-3h2v-7l-2-4-5-2-4-2-6 2v2h-2v9l3 7-1 2-5-2-4-7v-7l3-6 5-4z" fill="#1660CC"/>
<path transform="translate(829,684)" d="m0 0 4 4 8 45 6 25 3 10v6l-2-3-5-13-2-9-3-9-5-20 1-7-5-22-1-5z" fill="#1768D0"/>
<path transform="translate(868,692)" d="m0 0h2l5 19 2 10 3 13 4 14 4 13 7 15 3 5-1 3-9-14-4-8-6-18-2-11-8-34z" fill="#5CBDF5"/>
<path transform="translate(623,416)" d="m0 0 2 3 1 5 3 1 1-3-3-1h2v-3l7 1 1-2 6 9 9 6 5 2 11 1v1h-12l-9-2-6 1-7-4h-3-4l-4-9z" fill="#1970D4"/>
<path transform="translate(675,553)" d="m0 0 11 1 12 6 6 9 1 7-4-5-7-8-9-4h-16l-10 6-3 2-2-2 1-5 5-3 8-2z" fill="#46BAF7"/>
<path transform="translate(395,1113)" d="m0 0h6l-3 1-1 5v28l1 11v26l1 21-1 9-3 4z" fill="#0E7CF3"/>
<path transform="translate(1115,1138)" d="m0 0h1l2 29 1 17v28l-2 4-1 9h-1z" fill="#0E7CF3"/>
<path transform="translate(271,1146)" d="m0 0h1l1 24 1 1v14l1 13v14l-2 6v6l4 6v1h-6z" fill="#0E7CF2"/>
<path transform="translate(770,711)" d="m0 0 1 3h2l-1 10-7 5-2 6h-2l-1 4-9 10-7 1 6-8 9-11 6-9z" fill="#1B8AEE"/>
<path transform="translate(461,495)" d="m0 0h5l4 4v9l-4 3h-7l-4-5v-6l4-4z" fill="#0B35B7"/>
<path transform="translate(498,420)" d="m0 0h7l4 4 1 5-3 5-2 1h-7l-5-5 1-6z" fill="#145BC9"/>
<path transform="translate(466,694)" d="m0 0 6 1 3 3v8l-5 4-7-1-3-4v-6l3-4z" fill="#0A35B7"/>
<path transform="translate(631,613)" d="m0 0h3v2l6 2 3 2v2l9 2 12 4v1l8-1 11 1-4 2-6 1h-16l-12-4-10-8z" fill="#1985F2"/>
<path transform="translate(1026,599)" d="m0 0 2 1 6 25 6 21v3h2l8 17-3-1-7-12-8-21-7-25v-7z" fill="#249AEA"/>
<path transform="translate(689,410)" d="m0 0h1v6l-5 9-8 7-7 3h-13l-12-6-6-7-2-4 1-3 6 10 12 6h13l10-5 6-7z" fill="#082BB3"/>
<path transform="translate(643,362)" d="m0 0h2l1 5-11 16-1 3h-2l-1 4-4 4-2 3 1-8 9-17z" fill="#1682F0"/>
<path transform="translate(580,659)" d="m0 0h1l3 15 1 6h-1v8h-3l-2-3-5-17 1-4h3z" fill="#0F46BF"/>
<path transform="translate(531,640)" d="m0 0h17l5 1 1 10-4-4-22-1v-5z" fill="#0930B5"/>
<path transform="translate(993,866)" d="m0 0 6 2 28 12 12 5v2l4 1-15-1-9-1v-1h10v-2l-7-2-6-2-6-1-6-5-10-5z" fill="#186BD1"/>
<path transform="translate(659,375)" d="m0 0h14l10 6 6 9 2 5-1 4-2-6h-2l-3-6-6-5-7-3-16-1 2-2z" fill="#1F94E8"/>
<path transform="translate(815,435)" d="m0 0h13v3l-4 1-5-1-2 4-9 1-6-2 2-3z" fill="#1D8EE4"/>
<path transform="translate(632,429)" d="m0 0 9 5v3l4 1 1 5-7-1-6-4-5-5 1-3z" fill="#127FF0"/>
<path transform="translate(829,684)" d="m0 0 4 4 5 29v10l-2-4-7-32-1-5z" fill="#155ECB"/>
<path transform="translate(591,470)" d="m0 0h1v16l-2 12h-1l-3-9v-13l4-3z" fill="#1C8AED"/>
<path transform="translate(691,404)" d="m0 0 2 4 4 6 3 2-7 3-2-1-2 6-7 7-3-1 7-8 4-7z" fill="#1971D4"/>
<path transform="translate(1063,373)" d="m0 0 4 2 8 11v2l-5 1-4-4v-2h-2l-4-6h2z" fill="#299CEA"/>
<path transform="translate(701,599)" d="m0 0 1 3-8 9-9 3-8 1-10-2-5-3 3-1 5 2h14l8-3 5-4z" fill="#082BB3"/>
<path transform="translate(868,692)" d="m0 0h2l5 19 1 14-2-1-6-25z" fill="#60BDF5"/>
<path transform="translate(658,574)" d="m0 0h2l-2 15-6 1-2 3v-10l2-4 1 2z" fill="#1D8DEF"/>
<path transform="translate(759,734)" d="m0 0h2l-1 5-9 10-7 1 6-8z" fill="#1683EE"/>
<path transform="translate(1034,630)" d="m0 0 2 3 4 13v3h2l8 17-3-1-7-12-7-18z" fill="#209FF0"/>
<path transform="translate(577,565)" d="m0 0 1 3-3 31-2 1v-13l2-20z" fill="#1765CE"/>
<path transform="translate(841,743)" d="m0 0h2l6 23 1 2v6l-2-3-5-13-2-10z" fill="#1562CE"/>
<path transform="translate(517,639)" d="m0 0 14 1-3 1 1 4 2 2-9 1-2-2v-4l-3-1z" fill="#1868D0"/>
<path transform="translate(638,386)" d="m0 0h2l1 5-4 11-1 13h-1v-27z" fill="#1973D5"/>
<path transform="translate(296,1196)" d="m0 0h1l1 36-5-1 2-6v-28z" fill="#0E7DF2"/>
<path transform="translate(993,866)" d="m0 0 6 2 18 8-1 3-6-1-6-5-10-5z" fill="#186CD1"/>
<path transform="translate(659,375)" d="m0 0h10l8 4 2 3-9-3-16-1 2-2z" fill="#40B6F6"/>
<path transform="translate(658,374)" d="m0 0h7v1l-9 2v2l-10 5-4 3 2-7 11-5z" fill="#209FF1"/>
<path transform="translate(375,1126)" d="m0 0h1v42h-1l-2-11 1-16z" fill="#2197E8"/>
<path transform="translate(947,452)" d="m0 0 5 2v2l4 2 10 10 2 4-4-1-9-10-8-8z" fill="#23A3F3"/>
<path transform="translate(671,627)" d="m0 0 12 1-4 2-6 1h-16v-2l12-1z" fill="#42A2F2"/>
<path transform="translate(1090,416)" d="m0 0 3 1 7 16-1 4-2-4-2-2-2-6-4-8z" fill="#1762CD"/>
<path transform="translate(682,412)" d="m0 0h1l1 7-5 5-3 1v-2l-3-1 6-5z" fill="#1B79D9"/>
<path transform="translate(1235,1114)" d="m0 0v3l-11 11 1-5 4-6 2-2z" fill="#1C8AF1"/>
<path transform="translate(1e3 317)" d="m0 0 5 1 12 9-2 1-8-4-7-6z" fill="#3BB0F6"/>
<path transform="translate(868,692)" d="m0 0h2l3 10v6l-3-1-2-8z" fill="#5BBBF5"/>
<path transform="translate(953,384)" d="m0 0h6l7 2-4 1v2h-7l-3-1z" fill="#21A4F6"/>
<path transform="translate(890,774)" d="m0 0 4 4 3 5 2-1 4 7-1 3-7-8-5-8z" fill="#20A0F4"/>
<path transform="translate(835,705)" d="m0 0h1l2 12v10l-2-4-2-13z" fill="#1661CC"/>
<path transform="translate(659,594)" d="m0 0 5 5 7 4 3 2-6 1-6-4-3-6z" fill="#2795F0"/>
<path transform="translate(1098,439)" d="m0 0 6 5 2 6-1 4-2-4-4-4z" fill="#1864CD"/>
<path transform="translate(1064,381)" d="m0 0 8 3 3 2v2l-5 1-4-4v-2h-2z" fill="#1C8BEE"/>
<path transform="translate(970,387)" d="m0 0h10l2 2-1 2h-7l-2-1v-2z" fill="#22A6F7"/>
<path transform="translate(575,583)" d="m0 0h1l-1 16-2 1v-13z" fill="#1663CD"/>
<path transform="translate(687,420)" d="m0 0h3l-2 5-5 5-4 1 6-7z" fill="#186CD1"/>
<path transform="translate(1041,649)" d="m0 0 2 3 7 14-3-1-7-12z" fill="#1E95E9"/>
<path transform="translate(1210,1223)" d="m0 0h1v8h-9l3-2h2l2-5z" fill="#0E7CF3"/>
<path transform="translate(654,602)" d="m0 0 4 4 2 4-3 1-6-5z" fill="#188AEB"/>
<path transform="translate(701,599)" d="m0 0 1 3-8 9-3-1z" fill="#0B36B8"/>
<path transform="translate(653,599)" d="m0 0 3 1 6 7 2 2-3 1-5-5-3-4z" fill="#155ECB"/>
<path transform="translate(1071,1196)" d="m0 0h22v1l-19 1-3 4z" fill="#0E7CF3"/>
<path transform="translate(1032,883)" d="m0 0 5 1 2 1v2l4 1-15-1 4-3z" fill="#155AC9"/>
<path transform="translate(888,768)" d="m0 0 3 3 4 5 3 5-1 3-9-14z" fill="#45BBF7"/>
<path transform="translate(698,606)" d="m0 0 1 2h5l-3 1v2l-2 1h-6z" fill="#1788EC"/>
<path transform="translate(968,473)" d="m0 0h2l7 8 2 5-5-5-6-5z" fill="#32ADF4"/>
<path transform="translate(1228,1208)" d="m0 0 6 1-2 5-4 1z" fill="#0E7CF3"/>
<path transform="translate(1225,1166)" d="m0 0 2 1 2 5v5l-3-1-1-3z" fill="#107FF2"/>
<path transform="translate(513,1114)" d="m0 0 3 1-7 7h-2l1-4z" fill="#1785F1"/>
<path transform="translate(753,741)" d="m0 0 1 2-2 5-5 2-3-1 3-3 4-2z" fill="#117FEE"/>
<path transform="translate(821,435)" d="m0 0h7v3l-4 1-6-1v-2z" fill="#1D93E7"/>
<path transform="translate(658,374)" d="m0 0h7v1l-9 2v2l-6 1v-3z" fill="#209BED"/>
<path transform="translate(901,275)" d="m0 0h10l4 1v2l-14-1z" fill="#56BDF6"/>
<path transform="translate(490,1224)" d="m0 0h1v7h-9l4-2z" fill="#0E7CF3"/>
<path transform="translate(609,656)" d="m0 0h7l4 4-10-1z" fill="#1660CC"/>
<path transform="translate(508,1208)" d="m0 0 5 1v4h-2v2l-3-1z" fill="#0E7CF3"/>
<path transform="translate(846,758)" d="m0 0 2 4 2 6v6l-2-3-2-4z" fill="#186DD2"/>
<path transform="translate(839,737)" d="m0 0h3l1 6h-2l1 5h-2l-1-3z" fill="#156DD8"/>
</svg>
