<?xml version="1.0" standalone="no"?>
<!DOCTYPE svg PUBLIC "-//W3C//DTD SVG 20010904//EN"
 "http://www.w3.org/TR/2001/REC-SVG-20010904/DTD/svg10.dtd">
<svg version="1.0" xmlns="http://www.w3.org/2000/svg"
 width="756.000000pt" height="395.000000pt" viewBox="0 0 756.000000 395.000000"
 preserveAspectRatio="xMidYMid meet">

<g transform="translate(0.000000,395.000000) scale(0.100000,-0.100000)"
fill="#000000" stroke="none">
<path d="M0 1975 l0 -1975 3780 0 3780 0 -1 853 c-1 468 -4 841 -8 828 -8 -30
-47 -42 -104 -33 -38 7 -44 12 -66 57 -13 28 -27 57 -32 65 -5 8 -13 25 -18
37 -17 38 -48 38 -91 1 -21 -18 -52 -43 -67 -54 -39 -30 -86 -119 -85 -161 2
-42 -11 -42 -32 1 -13 27 -25 36 -62 45 -32 8 -44 16 -41 25 5 13 20 91 32
166 16 106 127 174 220 134 48 -21 175 -149 175 -176 0 -7 21 -8 63 -4 123 14
117 10 117 80 l0 62 -58 12 c-32 7 -72 12 -89 12 -18 0 -39 7 -47 16 -29 28
-24 30 141 50 41 4 42 4 46 -28 2 -18 5 416 5 965 l2 997 -3780 0 -3780 0 0
-1975z m5724 1899 c39 -15 9 -31 -111 -61 -185 -45 -179 -44 -192 -29 -17 20
-8 24 138 62 141 36 143 36 165 28z m517 -143 l24 -19 -30 -8 c-45 -12 -138
-11 -142 2 -2 6 20 18 49 26 71 21 72 21 99 -1z m-1455 -80 c-10 -16 6 -41 26
-41 15 0 18 -5 14 -20 -3 -11 -9 -29 -12 -40 -3 -11 -11 -20 -18 -20 -8 0 -19
-7 -26 -15 -21 -25 -44 -16 -72 29 -40 63 -43 73 -19 81 12 3 21 11 21 17 0 7
13 8 35 5 19 -3 35 -2 35 4 0 5 5 9 11 9 5 0 8 -4 5 -9z m715 -77 c42 -17 99
-82 99 -114 0 -9 5 -21 12 -28 7 -7 8 -12 3 -12 -6 0 -10 -30 -10 -68 0 -73
-18 -110 -63 -131 -38 -18 -38 -13 0 27 19 20 40 52 47 71 15 47 14 91 -3 91
-8 0 -24 13 -37 30 -27 34 -33 35 -73 15 -40 -21 -47 -19 -44 13 2 17 10 29
23 33 15 5 11 8 -20 14 -60 12 -71 36 -27 59 35 19 43 19 93 0z m-125 -74 c12
0 12 -4 -1 -30 -12 -22 -13 -35 -5 -49 5 -11 10 -30 10 -44 0 -14 17 -42 40
-68 45 -49 51 -92 15 -97 -49 -6 -94 62 -118 176 -10 49 -9 57 14 98 15 28 25
39 27 30 2 -9 10 -16 18 -16z m-686 10 c0 -5 -2 -10 -4 -10 -3 0 -8 5 -11 10
-3 6 -1 10 4 10 6 0 11 -4 11 -10z m1769 -49 c33 -27 35 -32 37 -96 2 -52 -3
-77 -18 -107 -11 -21 -25 -38 -32 -38 -6 0 -17 -9 -24 -21 -11 -17 -16 -19
-29 -7 -13 10 -17 10 -20 1 -4 -10 -9 -10 -25 2 -15 10 -26 11 -39 4 -19 -10
-35 3 -24 21 3 6 -3 10 -13 10 -18 0 -28 26 -33 85 -2 37 17 93 40 113 14 13
26 29 26 35 0 7 14 14 30 17 66 13 90 9 124 -19z m191 -61 c0 -16 -18 -30 -40
-30 -17 0 -20 34 -4 51 19 22 44 9 44 -21z m-1160 26 c0 -3 -4 -8 -10 -11 -5
-3 -10 -1 -10 4 0 6 5 11 10 11 6 0 10 -2 10 -4z m-405 -36 c0 -16 -6 -26 -17
-28 -14 -3 -18 3 -18 28 0 25 4 31 18 28 11 -2 17 -12 17 -28z m1450 -587 c-5
-115 -11 -183 -17 -183 -11 0 -6 330 9 640 l8 155 3 -215 c2 -118 0 -297 -3
-397z m-2005 572 c69 -8 131 -15 138 -15 6 0 12 -7 12 -16 0 -8 -5 -12 -10 -9
-19 12 -235 33 -244 25 -10 -10 43 -62 55 -54 10 6 49 -17 49 -30 0 -5 -9 -1
-20 9 -11 10 -23 16 -26 12 -3 -3 5 -12 18 -20 31 -21 134 -4 149 24 12 22 31
26 23 4 -4 -8 -1 -15 5 -15 6 0 11 8 11 17 0 13 3 14 12 5 10 -10 10 -17 1
-32 -7 -10 -15 -39 -19 -65 -4 -37 -2 -51 12 -66 12 -14 14 -23 7 -30 -8 -8
-7 -19 0 -39 6 -16 8 -32 4 -36 -7 -7 -117 100 -117 114 0 3 -16 23 -36 43
-33 34 -39 36 -72 29 -20 -5 -73 -11 -117 -14 -69 -4 -73 -3 -30 5 28 5 57 10
65 10 8 1 20 6 27 11 7 5 20 7 30 4 10 -3 24 -2 31 2 13 9 -25 44 -93 87 -48
30 -56 40 -42 54 7 7 21 9 32 6 11 -4 76 -13 145 -20z m610 -16 c0 -5 -5 -7
-11 -3 -8 5 -10 -1 -7 -20 3 -14 1 -26 -3 -26 -5 0 -9 14 -9 30 0 20 5 30 15
30 8 0 15 -5 15 -11z m-400 -49 c0 -5 -4 -10 -10 -10 -5 0 -10 5 -10 10 0 6 5
10 10 10 6 0 10 -4 10 -10z m345 -40 c8 -24 -1 -40 -21 -40 -9 0 -14 11 -14
30 0 35 25 42 35 10z m181 -28 c1 -19 6 -26 18 -24 9 2 16 -4 16 -13 0 -15 10
-19 43 -15 10 1 24 -3 30 -8 15 -13 15 -84 0 -89 -7 -3 -9 4 -6 17 5 19 2 21
-22 18 -35 -4 -45 -27 -16 -35 20 -5 28 -23 15 -36 -4 -3 -16 0 -28 8 -35 25
-47 19 -44 -22 3 -35 2 -37 -29 -39 -23 -1 -33 3 -33 13 0 10 6 12 20 8 19 -6
27 5 14 18 -7 7 -56 -13 -66 -28 -4 -5 -10 -6 -15 -2 -13 13 13 42 41 45 14 2
24 8 21 13 -8 12 -45 12 -45 0 0 -17 -61 -25 -72 -10 -7 11 -11 11 -15 2 -7
-18 -23 -16 -23 2 0 8 4 15 9 15 5 0 11 9 14 20 7 27 23 25 31 -2 10 -42 28
-3 30 65 l1 65 38 -4 c35 -3 37 -2 37 25 0 53 33 47 36 -7z m1567 4 c4 -11 1
-13 -10 -9 -13 5 -14 3 -4 -15 13 -24 31 -29 31 -10 0 6 9 2 21 -11 19 -20 21
-33 19 -129 -3 -128 -3 -132 10 -132 6 0 10 43 10 110 0 61 4 110 9 110 5 0
41 -34 80 -75 60 -64 71 -80 71 -110 0 -28 4 -35 20 -35 14 0 20 -7 20 -23 0
-13 -3 -27 -7 -31 -9 -9 -13 -30 -20 -96 -6 -61 3 -75 47 -82 20 -2 25 -9 25
-30 -1 -36 9 -36 25 1 12 29 5 141 -9 141 -3 0 -19 -7 -34 -15 -24 -12 -29
-12 -34 0 -3 8 -2 27 3 43 4 15 8 29 8 32 1 3 7 14 14 25 12 20 12 20 33 -5
40 -49 63 -112 64 -177 0 -65 -16 -92 -57 -93 -11 0 -20 -11 -24 -27 -18 -86
-29 -123 -35 -123 -4 0 -14 11 -23 25 -22 33 -36 23 -36 -24 0 -21 -5 -63 -12
-95 -9 -46 -17 -62 -45 -83 -18 -14 -33 -29 -33 -33 0 -14 51 -21 66 -9 11 9
14 8 14 -4 0 -22 -20 -26 -99 -23 -78 3 -97 14 -118 64 -9 21 -20 32 -33 32
-11 0 -20 -4 -20 -10 0 -21 -20 -9 -36 22 -15 30 -17 31 -30 14 -7 -10 -16
-39 -20 -65 -9 -61 -10 -62 -42 -45 -15 7 -45 14 -67 14 -45 0 -164 18 -178
27 -17 10 17 23 63 23 25 0 62 3 83 6 35 6 37 9 37 43 l0 36 -105 -3 c-89 -3
-112 -1 -145 16 -22 10 -37 22 -34 25 3 3 46 3 95 0 80 -5 89 -4 89 11 0 10
-9 31 -21 47 -12 17 -19 40 -17 56 2 23 8 29 36 31 22 2 32 8 32 20 1 15 2 15
15 -2 11 -14 31 -21 72 -24 41 -3 64 -11 79 -26 80 -79 108 -85 124 -26 11 39
12 40 57 40 l46 0 -6 56 c-7 66 -14 76 -33 50 -14 -20 -14 -20 -42 2 -15 13
-35 25 -44 29 -26 8 -22 20 12 32 20 7 30 17 30 30 0 12 -4 21 -10 21 -5 0
-10 7 -10 16 0 11 6 15 20 11 13 -3 20 0 20 9 0 13 18 19 48 15 8 -1 12 12 12
40 0 34 -3 40 -16 35 -24 -9 -44 12 -44 46 0 25 -3 29 -17 23 -63 -26 -123
-27 -186 -3 -37 14 -47 36 -47 98 0 92 45 144 136 155 29 4 54 11 54 15 0 7
15 14 41 19 4 0 9 -6 12 -13z m-1707 -21 c-21 -16 -20 -25 2 -41 15 -12 15
-15 2 -24 -27 -18 -45 -7 -42 25 5 43 20 65 39 58 15 -6 15 -7 -1 -18z m1014
-92 c0 -40 -5 -75 -11 -78 -13 -9 -20 -2 -23 22 -2 10 -8 18 -14 17 -30 -3
-32 -5 -20 -23 10 -16 7 -25 -15 -54 -19 -25 -23 -37 -14 -40 6 -3 -9 -6 -35
-6 -29 -1 -48 3 -48 10 0 6 -14 29 -32 51 -32 41 -44 83 -27 94 5 3 7 10 4 15
-20 31 117 29 151 -2 11 -11 24 -16 27 -12 4 3 7 0 7 -8 1 -29 17 15 25 65 10
70 25 40 25 -51z m-1880 71 c-34 -7 -108 -8 -103 -1 2 4 30 6 61 6 31 -1 50
-3 42 -5z m40 -34 c80 -5 173 -10 207 -11 41 -2 64 -7 67 -16 3 -7 2 -12 -2
-10 -4 1 -18 -6 -32 -16 l-25 -18 29 -24 c18 -15 27 -29 23 -39 -3 -8 -2 -18
3 -21 16 -10 11 -23 -11 -30 -19 -6 -20 -13 -18 -91 2 -46 0 -86 -4 -90 -4 -4
-7 10 -7 31 0 31 -2 36 -14 26 -12 -10 -17 -8 -25 8 -13 24 -14 34 -3 27 5 -3
8 11 8 29 -1 19 -5 35 -9 35 -5 0 -5 9 -2 20 8 26 -4 65 -16 53 -6 -6 -6 -26
0 -54 16 -68 -1 -103 -62 -130 -57 -24 -92 -21 -139 12 -27 20 -43 22 -194 23
-90 0 -164 4 -164 9 0 4 17 7 38 8 82 1 258 6 272 8 12 1 14 11 12 45 -2 24 1
53 7 64 11 20 85 62 112 62 9 1 7 5 -6 12 -11 7 -31 22 -45 35 -18 17 -37 23
-68 23 -24 0 -41 -4 -38 -8 2 -4 1 -14 -5 -22 -6 -11 -9 -8 -9 13 0 22 -4 27
-25 27 -14 0 -25 5 -25 10 0 12 -11 12 170 0z m-150 -108 c18 -47 28 -88 24
-92 -5 -5 -52 -10 -104 -11 -72 -1 -100 -5 -114 -18 -18 -15 -18 -15 -8 4 6
11 20 28 31 37 12 10 21 24 21 32 0 8 6 19 13 23 8 4 24 23 37 40 13 18 25 31
27 30 8 -9 -49 -107 -62 -107 -8 0 -15 -4 -15 -10 0 -12 119 -13 138 -2 10 7
8 22 -8 71 -18 58 -26 100 -16 90 2 -2 18 -42 36 -87z m2180 10 c25 -16 38
-17 84 -9 87 16 86 17 86 -131 0 -134 -5 -152 -44 -152 -12 0 -16 -4 -11 -8 6
-4 16 -19 24 -33 11 -23 11 -30 -4 -52 -22 -34 -68 -50 -101 -35 -33 15 -40
51 -19 98 19 41 14 60 -14 60 -28 0 -46 26 -31 45 20 24 4 45 -33 45 -19 0
-44 8 -56 19 -29 25 -44 76 -26 91 7 6 11 20 8 31 -12 45 79 66 137 31z
m-1434 -11 c6 -1 29 -15 50 -32 25 -20 45 -28 59 -25 14 4 25 -1 33 -15 12
-18 11 -21 -7 -26 -15 -4 -21 -13 -21 -34 0 -15 4 -30 10 -34 5 -3 6 -13 3
-22 -8 -21 23 -43 61 -43 18 0 26 -4 19 -8 -6 -4 -13 -23 -16 -42 l-4 -35 -1
36 c-2 31 -6 37 -34 45 -49 14 -77 7 -71 -17 3 -11 -2 -28 -12 -39 -16 -18
-17 -21 -1 -45 20 -30 36 -32 36 -5 0 11 2 20 4 20 2 0 11 3 20 6 11 4 16 1
16 -11 0 -9 -4 -13 -10 -10 -5 3 -10 2 -10 -4 0 -20 22 -22 27 -2 6 24 41 29
49 7 3 -8 11 -13 17 -11 15 5 62 -33 53 -42 -10 -10 -69 -7 -91 4 -11 6 -37
10 -58 9 -34 -2 -40 2 -65 41 -28 45 -42 54 -42 28 0 -8 -5 -15 -11 -15 -6 0
-9 -7 -5 -15 4 -13 2 -13 -14 -5 -24 13 -30 13 -30 0 0 -5 7 -10 16 -10 12 0
10 -5 -9 -20 -33 -26 -37 -25 -37 6 0 29 -20 53 -51 59 -12 2 -28 10 -36 16
-17 15 -46 69 -37 69 4 0 2 6 -3 13 -23 28 -8 157 18 157 4 0 20 11 35 25 17
16 34 23 46 19 10 -3 18 -1 18 4 0 7 29 8 86 3z m676 -71 c11 -16 19 -45 21
-76 2 -43 5 -50 20 -46 11 3 17 -1 17 -12 0 -12 -10 -16 -40 -16 -36 0 -40 -2
-40 -25 0 -18 -7 -28 -25 -35 -14 -5 -25 -16 -25 -25 0 -8 -7 -15 -16 -15 -10
0 -14 6 -10 15 3 9 -3 19 -14 25 -11 6 -31 22 -45 36 -21 21 -25 34 -25 88 0
49 4 65 16 70 9 3 14 13 11 21 -5 10 5 15 36 18 78 7 99 3 119 -23z m557 -32
c0 -28 -2 -30 -9 -13 -12 28 -12 45 0 45 6 0 10 -15 9 -32z m-1020 -2 c19 -23
-14 -28 -35 -5 -16 18 -16 19 3 19 11 0 26 -6 32 -14z m71 -51 c5 -14 21 -38
35 -52 24 -26 27 -49 3 -25 -7 7 -22 12 -35 12 -25 0 -28 7 -14 30 7 10 4 18
-10 28 -23 16 -25 32 -4 32 9 0 20 -11 25 -25z m-85 -12 c-21 -14 -55 -18 -55
-5 0 15 11 21 42 20 28 -1 29 -2 13 -15z m1604 8 c18 -11 5 -31 -20 -31 -18 0
-26 20 -12 33 8 9 15 9 32 -2z m-979 -56 c0 -8 -4 -15 -9 -15 -13 0 -22 16
-14 24 11 11 23 6 23 -9z m930 5 c0 -5 -11 -10 -25 -10 -14 0 -25 5 -25 10 0
6 11 10 25 10 14 0 25 -4 25 -10z m-2400 -65 c8 0 21 -7 28 -15 11 -13 13 -13
23 3 5 9 13 17 17 17 10 0 34 -79 27 -90 -3 -5 -1 -11 5 -15 7 -4 7 -12 0 -26
-13 -23 -30 -25 -30 -4 0 20 -44 20 -60 0 -8 -9 -20 -13 -29 -10 -29 12 -71
14 -71 5 0 -14 -21 -12 -53 3 -39 17 -33 27 16 27 36 0 46 5 70 35 22 28 27
42 22 65 -4 16 -3 35 1 42 6 9 10 5 14 -12 3 -14 12 -25 20 -25z m1006 8 c-10
-10 -19 5 -10 18 6 11 8 11 12 0 2 -7 1 -15 -2 -18z m92 15 c16 -16 15 -28 -2
-28 -17 0 -38 24 -29 33 9 10 17 9 31 -5z m-108 -33 c0 -1 -9 -10 -20 -20 -20
-18 -20 -17 -20 8 0 20 4 24 20 20 11 -3 20 -6 20 -8z m-1350 -71 c0 -36 -36
-69 -78 -72 -36 -2 -36 20 -2 88 l31 62 25 -23 c16 -15 24 -33 24 -55z m216
49 c-10 -10 -19 5 -10 18 6 11 8 11 12 0 2 -7 1 -15 -2 -18z m404 -34 c0 -36
-4 -49 -14 -49 -8 0 -17 6 -19 13 -4 9 -8 9 -15 -2 -17 -24 -32 -2 -32 46 0
43 1 45 25 39 14 -4 25 -2 25 3 0 6 7 8 15 5 11 -4 15 -21 15 -55z m-360 11
c0 -13 -1 -13 -10 0 -5 8 -10 22 -10 30 0 13 1 13 10 0 5 -8 10 -22 10 -30z
m1444 24 c20 -8 21 -24 2 -24 -8 0 -16 7 -20 15 -6 17 -4 18 18 9z m-188 -41
c-10 -10 -19 5 -10 18 6 11 8 11 12 0 2 -7 1 -15 -2 -18z m1904 -23 c8 -16 8
-20 -3 -20 -8 0 -17 9 -20 20 -3 11 -1 20 4 20 4 0 13 -9 19 -20z m-2484 -55
c14 -13 13 -15 -5 -15 -21 0 -35 13 -24 24 9 9 13 8 29 -9z m319 6 c3 -5 1
-12 -4 -16 -13 -7 -62 5 -57 14 7 10 54 12 61 2z m-851 -24 c16 -12 16 -14 -2
-30 -16 -15 -24 -16 -46 -6 -25 12 -33 29 -19 42 11 11 48 8 67 -6z m-2860
-27 c14 -5 26 -17 26 -25 0 -13 -9 -15 -49 -9 -69 9 -101 0 -101 -30 0 -30 16
-43 75 -60 63 -19 85 -41 85 -83 0 -46 -13 -68 -50 -83 -35 -14 -124 -8 -146
11 -23 19 -18 42 9 35 91 -28 140 -14 135 37 -3 29 -8 33 -57 48 -70 21 -101
48 -101 89 0 49 38 80 99 80 27 0 61 -4 75 -10z m207 -97 l35 -107 34 105 c34
100 36 104 66 107 l31 3 7 -62 c3 -34 6 -102 6 -150 0 -80 -2 -89 -19 -89 -17
0 -19 12 -26 118 l-8 117 -34 -102 c-31 -91 -37 -103 -58 -103 -20 0 -27 12
-56 103 l-34 102 -5 -115 c-5 -112 -6 -115 -29 -118 l-24 -4 6 99 c4 54 7 122
7 151 l0 52 33 0 33 0 35 -107z m436 -33 c23 -74 43 -141 43 -147 0 -7 -9 -13
-20 -13 -14 0 -22 11 -31 40 l-12 40 -58 0 -58 0 -11 -39 c-10 -39 -24 -52
-46 -44 -9 3 44 196 80 290 4 9 17 13 38 11 32 -3 32 -4 75 -138z m295 110
c26 -27 30 -36 24 -68 -3 -21 -15 -44 -28 -54 -13 -10 -18 -18 -12 -18 14 0
31 -40 40 -92 6 -36 5 -38 -19 -38 -21 0 -25 6 -30 40 -7 56 -22 70 -73 70
l-44 0 0 -55 c0 -52 -1 -55 -25 -55 l-25 0 0 150 0 150 81 0 c76 0 82 -2 111
-30z m288 10 c0 -17 -7 -20 -45 -20 l-45 0 0 -130 c0 -123 -1 -130 -20 -130
-19 0 -20 7 -20 130 l0 130 -45 0 c-38 0 -45 3 -45 20 0 19 7 20 110 20 103 0
110 -1 110 -20z m1840 10 c0 -5 -2 -10 -4 -10 -3 0 -8 5 -11 10 -3 6 -1 10 4
10 6 0 11 -4 11 -10z m1706 -3 c4 -4 0 -7 -8 -7 -9 0 -30 -3 -47 -6 -23 -5
-31 -3 -31 8 0 10 12 14 40 13 21 0 42 -4 46 -8z m-168 -27 c30 -28 28 -37
-12 -54 -38 -16 -50 -44 -61 -146 -8 -72 -31 -164 -50 -198 l-14 -27 0 30 c-1
35 23 171 34 198 6 14 2 20 -14 24 -26 7 -26 14 0 94 31 93 72 120 117 79z
m-2175 -4 c4 -10 1 -13 -9 -9 -15 6 -19 23 -5 23 5 0 11 -7 14 -14z m558 -49
c-8 -8 -11 -5 -11 9 0 27 14 41 18 19 2 -9 -1 -22 -7 -28z m3005 -41 c30 -64
30 -76 -1 -76 -24 0 -28 -7 -37 -65 -6 -36 -26 -21 -57 40 -31 61 -48 123 -38
147 3 9 21 12 57 9 52 -3 52 -3 76 -55z m-2489 21 c27 -24 23 -33 -20 -42 -17
-4 -51 -18 -74 -31 -23 -13 -45 -24 -49 -24 -12 0 3 76 21 104 16 25 22 27 59
21 23 -4 51 -16 63 -28z m-556 -39 c10 -13 21 -44 25 -70 4 -27 12 -49 18 -49
29 -3 53 5 79 27 19 16 33 21 41 16 6 -5 30 -12 53 -16 34 -5 41 -3 37 8 -4
12 1 11 30 -2 36 -16 47 -32 23 -32 -7 0 -18 5 -25 12 -9 9 -12 9 -12 0 0 -7
7 -15 15 -18 8 -4 15 -10 15 -15 0 -16 -43 -69 -55 -69 -7 0 -20 -9 -30 -20
-15 -16 -16 -30 -11 -93 6 -60 5 -76 -8 -86 -13 -11 -16 -11 -16 2 0 9 -8 18
-18 22 -13 4 -27 32 -46 94 -24 78 -31 89 -59 102 -23 10 -33 22 -35 42 -3 27
-6 29 -38 23 -21 -4 -34 -3 -34 4 0 5 -5 10 -11 10 -5 0 -8 -4 -5 -8 3 -5 8
-37 11 -72 7 -72 1 -80 -58 -80 -27 0 -45 7 -62 25 -32 31 -34 51 -14 128 8
30 14 38 28 34 14 -3 19 1 19 20 0 31 28 57 67 61 17 2 34 8 40 13 13 13 14
12 36 -13z m1359 -58 c8 -5 11 -12 7 -17 -5 -4 -12 -1 -17 7 -7 11 -13 12 -35
2 -34 -16 -45 -15 -45 3 0 17 65 21 90 5z m-1959 -49 c-6 -11 -11 -36 -11 -55
0 -35 3 -37 63 -65 34 -16 87 -36 117 -46 30 -9 71 -24 90 -32 32 -13 33 -15
17 -27 -10 -8 -66 -16 -144 -21 -141 -8 -166 -15 -161 -48 3 -19 8 -22 48 -19
53 3 334 29 403 37 46 6 48 5 37 -14 -5 -11 -33 -39 -60 -63 -28 -24 -50 -48
-50 -54 0 -6 14 -17 31 -24 30 -13 32 -12 92 46 34 32 65 63 69 69 10 13 -8
32 -38 39 -14 4 -22 11 -19 15 6 10 84 -25 100 -45 5 -7 73 -35 150 -63 77
-29 159 -58 182 -67 47 -17 70 -38 53 -49 -6 -4 -17 -4 -25 -1 -8 3 -15 0 -15
-6 0 -7 -17 -9 -51 -5 -28 4 -73 2 -101 -3 -28 -6 -107 -15 -177 -20 -69 -6
-182 -17 -251 -25 l-125 -13 -35 27 c-40 32 -78 43 -134 41 -34 -1 -43 4 -70
37 -45 55 -53 74 -66 160 -20 142 -20 137 6 150 27 13 29 7 15 -43 -6 -20 -4
-40 4 -60 11 -23 14 -25 14 -9 1 11 8 38 16 60 19 52 19 85 0 85 -8 0 -20 10
-26 23 -7 12 -18 26 -25 30 -19 11 -18 53 1 60 8 4 17 2 20 -3 10 -17 19 -11
39 23 15 24 20 28 23 15 3 -9 -1 -26 -6 -37z m2097 32 c25 -4 32 -10 32 -28 0
-14 -7 -26 -17 -29 -34 -10 -182 -18 -208 -12 -37 9 -23 22 30 28 34 4 51 12
66 33 16 20 27 25 43 20 11 -4 36 -9 54 -12z m-1811 -45 c-3 -8 -6 -5 -6 6 -1
11 2 17 5 13 3 -3 4 -12 1 -19z m1553 7 c11 -13 8 -15 -18 -15 -32 0 -51 15
-30 23 23 9 35 7 48 -8z m624 -26 c3 1 16 1 29 0 15 -1 11 -4 -13 -9 -37 -9
-57 0 -45 20 6 9 9 9 15 0 4 -6 10 -11 14 -11z m1265 -78 c-3 -6 -10 -7 -18
-2 -7 5 -10 14 -6 21 9 14 29 -2 24 -19z m-1954 -15 c190 -44 250 -61 248 -71
-5 -23 -100 -30 -148 -9 -20 8 -20 8 -1 -11 17 -17 18 -29 12 -109 -3 -50 -11
-95 -16 -100 -6 -6 -10 -18 -10 -28 0 -10 -7 -18 -15 -18 -8 0 -15 -4 -15 -10
0 -5 -7 -10 -15 -10 -8 0 -15 5 -15 10 0 6 5 10 12 10 6 0 4 7 -5 18 -14 15
-17 40 -17 130 0 103 2 112 21 123 12 6 37 9 56 6 30 -5 33 -4 22 9 -15 19
-64 15 -152 -12 -12 -3 -44 -27 -71 -53 -27 -25 -46 -38 -43 -29 4 12 2 15 -9
11 -22 -8 -17 37 7 64 18 18 20 25 9 38 -7 8 -18 15 -26 15 -15 0 -28 35 -18
51 8 13 37 9 189 -25z m577 -16 c3 -22 0 -25 -27 -22 -41 5 -42 8 -15 37 26
27 36 24 42 -15z m408 -10 c47 -6 99 -13 116 -16 21 -4 34 -1 43 10 15 17 31
21 31 7 0 -4 -13 -24 -30 -42 -16 -19 -30 -37 -30 -41 0 -5 18 -8 40 -8 29 0
38 4 34 14 -5 13 24 31 34 21 3 -3 0 -5 -6 -5 -7 0 -12 -8 -12 -19 0 -14 10
-21 36 -26 31 -5 41 -2 65 21 16 15 29 35 29 43 1 13 3 13 14 -2 9 -12 38 -22
80 -29 57 -10 66 -14 66 -32 0 -12 -7 -31 -15 -42 -18 -27 -94 -36 -180 -22
-68 10 -264 44 -340 58 -27 5 -104 17 -170 26 -87 12 -126 22 -141 35 -11 11
-26 19 -32 19 -7 0 -12 5 -12 10 0 6 17 10 38 11 20 0 71 7 112 14 41 8 91 12
110 9 19 -2 73 -9 120 -14z m-1142 -31 c10 0 -18 -10 -61 -23 -42 -13 -85 -29
-95 -37 -10 -8 -5 -2 11 13 16 15 47 30 69 33 22 4 42 14 46 23 4 10 7 12 10
4 2 -7 11 -12 20 -13z m1379 15 c-3 -3 -12 -4 -19 -1 -8 3 -5 6 6 6 11 1 17
-2 13 -5z m-1225 -56 c-6 -6 -15 -8 -19 -4 -4 4 -1 11 7 16 19 12 27 3 12 -12z
m-4651 -88 c10 -6 19 -20 19 -31 0 -16 -3 -18 -19 -9 -11 5 -38 10 -60 10 -55
0 -75 -36 -69 -128 6 -96 40 -117 137 -87 19 7 22 5 19 -11 -7 -40 -93 -57
-147 -30 -39 21 -51 56 -51 152 0 81 1 87 29 115 24 24 38 29 76 29 25 0 55
-5 66 -10z m131 -117 l3 -128 68 -3 c59 -3 67 -5 67 -22 0 -18 -7 -20 -90 -20
l-90 0 0 150 c0 143 1 150 20 150 18 0 20 -8 22 -127z m347 95 c34 -110 70
-226 76 -245 5 -20 3 -23 -18 -23 -21 0 -27 7 -34 38 l-9 37 -59 0 -60 0 -9
-37 c-8 -31 -14 -38 -33 -38 -21 0 -23 4 -18 23 4 12 25 79 47 150 l40 127 33
0 c29 0 35 -4 44 -32z m302 22 c10 -6 19 -16 19 -23 0 -10 -20 -13 -72 -13
l-73 1 0 -30 c0 -31 23 -48 78 -60 86 -18 104 -133 25 -166 -33 -13 -122 -6
-144 12 -23 19 -18 42 9 35 90 -27 140 -14 135 36 -3 28 -9 33 -68 54 -35 13
-70 31 -77 40 -19 26 -16 68 8 98 18 23 28 26 80 26 33 0 69 -5 80 -10z m250
0 c10 -6 19 -17 19 -24 0 -11 -13 -13 -60 -9 -40 4 -65 2 -75 -7 -34 -28 -7
-64 60 -81 62 -16 85 -41 85 -93 0 -30 -6 -48 -20 -61 -43 -39 -180 -26 -180
17 0 16 4 19 23 14 57 -18 103 -18 120 -1 20 20 22 48 3 64 -7 6 -34 18 -61
25 -65 20 -85 41 -85 88 0 56 26 78 96 78 30 0 64 -5 75 -10z m283 -11 c33
-26 37 -96 7 -124 -20 -17 -20 -18 -1 -44 10 -14 20 -45 23 -68 5 -40 3 -43
-18 -43 -19 0 -23 7 -28 40 -7 58 -21 70 -78 70 l-49 0 0 -55 c0 -48 -2 -55
-20 -55 -19 0 -20 7 -20 150 l0 150 79 0 c64 0 83 -4 105 -21z m284 -1 c41
-45 54 -129 31 -211 -25 -90 -160 -106 -209 -25 -15 24 -20 51 -20 100 0 120
29 157 121 158 45 0 60 -4 77 -22z m295 -4 c32 -31 41 -73 35 -159 -5 -84 -32
-116 -105 -122 -91 -8 -133 43 -133 160 0 99 41 147 126 147 42 0 56 -5 77
-26z m208 -74 c18 -54 35 -97 39 -94 3 3 19 47 36 97 29 87 32 92 61 95 29 3
30 2 36 -50 4 -29 7 -97 7 -150 0 -91 -1 -98 -20 -98 -18 0 -20 7 -21 63 0 34
-4 85 -7 112 l-7 50 -31 -95 c-27 -84 -33 -95 -55 -98 -23 -3 -27 3 -59 105
l-35 108 -5 -120 c-5 -115 -6 -120 -27 -123 l-23 -3 6 138 c3 76 7 144 10 151
2 6 17 12 33 12 29 0 31 -3 62 -100z m3401 63 c-16 -21 -38 -46 -49 -55 -19
-17 -20 -17 -41 12 -12 16 -22 31 -22 33 0 7 82 29 87 23 3 -3 15 1 27 9 31
22 31 19 -2 -22z m238 21 c8 -1 17 -3 19 -3 2 -1 -4 -13 -14 -27 -9 -14 -15
-28 -12 -30 2 -2 78 -19 168 -37 123 -25 164 -37 162 -48 -3 -26 -32 -121 -38
-128 -4 -3 -29 -5 -56 -4 -27 0 -49 -3 -49 -9 0 -5 -10 -6 -21 -3 -12 4 -19 3
-16 -2 8 -13 -103 -8 -138 6 -42 18 -102 37 -154 51 -24 6 -55 16 -68 21 l-25
9 26 21 c15 12 45 23 66 26 34 5 48 15 95 70 30 36 53 69 49 74 -3 5 -20 9
-37 10 -18 1 -43 5 -57 10 -22 7 53 3 100 -7z m-2410 -34 c0 -5 -4 -10 -10
-10 -5 0 -10 5 -10 10 0 6 5 10 10 10 6 0 10 -4 10 -10z m2263 -52 c-3 -18
-12 -41 -18 -51 -12 -17 -14 -16 -29 13 -18 38 -4 70 31 70 20 0 22 -4 16 -32z
m-2283 18 c0 -3 -4 -8 -10 -11 -5 -3 -10 -1 -10 4 0 6 5 11 10 11 6 0 10 -2
10 -4z m1630 -26 c0 -5 -22 -10 -50 -10 -27 0 -50 5 -50 10 0 6 23 10 50 10
28 0 50 -4 50 -10z m380 -57 c0 -10 -6 -10 -25 -1 -27 12 -28 13 -19 46 l7 23
18 -28 c11 -15 19 -34 19 -40z m-772 -78 c6 -6 -8 -25 -18 -25 -5 0 -16 7 -24
16 -11 10 -16 11 -16 3 0 -7 -3 -10 -6 -6 -14 13 9 28 35 22 14 -4 28 -8 29
-10z m1851 -36 c-19 -19 -19 -22 -5 -37 13 -16 12 -18 -10 -29 -21 -9 -26 -8
-34 7 -6 10 -10 30 -10 44 0 24 5 27 68 35 6 0 3 -8 -9 -20z m-3450 -45 c1 -1
0 -8 -4 -14 -6 -9 -10 -9 -16 1 -13 22 -22 2 -9 -21 7 -12 7 -20 2 -16 -6 3
-15 20 -21 36 -10 29 -9 30 17 24 15 -4 29 -8 31 -10z m2927 -9 c8 -8 37 -17
65 -21 27 -4 52 -11 55 -16 12 -20 -129 16 -146 37 -17 20 6 21 26 0z m-1916
-84 c-6 -13 -16 -18 -27 -14 -30 12 -8 -21 24 -37 18 -8 36 -25 42 -37 6 -13
19 -24 28 -25 33 -2 38 -4 52 -12 11 -7 13 -5 8 7 -10 27 10 20 54 -20 25 -22
54 -65 75 -110 20 -41 42 -77 49 -80 13 -4 283 39 515 82 120 23 141 20 294
-41 78 -30 156 -62 174 -70 18 -7 39 -14 46 -14 7 0 26 -7 43 -15 16 -8 78
-32 139 -54 261 -94 571 -206 724 -262 91 -34 171 -63 178 -65 19 -5 16 -14
-40 -103 l-53 -84 -100 -32 c-233 -77 -663 -215 -668 -215 -3 0 -36 17 -74 38
-80 46 -209 115 -311 167 -40 21 -71 42 -69 49 2 6 29 14 60 18 79 10 122 23
120 37 -2 6 2 11 7 11 14 0 29 41 42 110 5 30 16 62 24 71 16 18 18 39 4 39
-20 0 -9 22 36 70 27 29 44 56 42 67 -2 11 -49 38 -143 80 -77 35 -146 63
-152 63 -7 0 -43 -32 -80 -70 -51 -54 -72 -69 -88 -65 -11 3 -36 10 -55 16
-29 9 -51 6 -125 -14 -119 -34 -198 -42 -237 -26 -26 11 -32 10 -40 -4 -7 -13
-24 -17 -78 -17 l-70 0 0 -42 c1 -72 41 -209 85 -290 8 -14 15 -36 15 -47 0
-12 3 -22 8 -22 4 -1 18 -3 32 -5 61 -8 105 -20 105 -29 0 -8 -40 -35 -92 -61
-19 -9 -15 -46 7 -74 14 -18 20 -40 19 -80 l0 -55 -29 34 c-38 44 -100 163
-100 190 0 12 -6 34 -14 49 -22 43 -86 241 -102 317 -9 39 -23 113 -33 165
-23 124 -33 144 -80 174 -22 14 -42 30 -46 36 -9 15 -73 40 -101 40 -26 0
-111 -79 -161 -151 -78 -111 -135 -263 -149 -402 -6 -63 -17 -97 -28 -86 -8 8
-26 222 -26 312 0 44 -4 77 -10 77 -5 0 -10 -7 -10 -16 0 -9 -9 -28 -20 -44
-20 -28 -50 -148 -50 -200 0 -16 -4 -31 -9 -34 -15 -9 -22 87 -10 139 6 28 15
84 20 125 20 151 41 217 102 315 52 83 75 110 142 165 57 46 86 63 116 67 35
5 41 10 47 37 l7 31 3 -27 c2 -15 -2 -36 -8 -47z m2460 9 c9 -17 8 -20 -14
-20 -27 0 -41 14 -31 30 10 17 34 11 45 -10z m147 -6 c5 -15 -23 -37 -37 -29
-5 3 -10 14 -10 24 0 20 41 24 47 5z m-2287 -75 c0 -5 -7 -9 -15 -9 -9 0 -15
9 -15 21 0 18 2 19 15 9 8 -7 15 -16 15 -21z m53 7 c6 -16 -2 -28 -14 -20 -12
7 -11 34 0 34 5 0 11 -6 14 -14z m2307 -6 c0 -5 -9 -10 -19 -10 -11 0 -23 5
-26 10 -4 6 5 10 19 10 14 0 26 -4 26 -10z m-3286 -29 c17 -7 26 -7 29 2 3 7
4 -1 2 -18 -1 -16 -8 -31 -14 -33 -7 -2 -17 -15 -22 -29 -7 -19 -12 -23 -23
-14 -7 6 -16 8 -19 4 -4 -3 -7 14 -7 39 0 60 7 66 54 49z m100 -7 c15 -14 16
-14 16 2 0 10 2 15 5 12 9 -9 -6 -58 -17 -58 -5 0 -6 5 -3 10 3 6 -3 10 -14
10 -20 0 -28 19 -14 33 9 9 9 9 27 -9z m-24 -204 c0 -5 -7 -10 -15 -10 -8 0
-15 5 -15 10 0 6 7 10 15 10 8 0 15 -4 15 -10z m1660 -176 c0 -10 -28 -34 -39
-34 -17 0 -13 18 7 29 19 12 32 14 32 5z m50 -65 c0 -5 -5 -9 -11 -9 -7 0 -18
-8 -26 -17 -13 -16 -13 -16 -7 7 4 14 11 28 17 32 13 8 27 1 27 -13z m59 -20
c-9 -17 -13 -19 -19 -8 -11 16 -4 29 16 29 12 0 13 -4 3 -21z m-144 -49 c-3
-5 -1 -10 4 -10 6 0 11 -7 11 -15 0 -12 -3 -12 -18 3 -19 17 -19 32 -1 32 6 0
7 -4 4 -10z m-222 -101 c34 -11 79 -30 100 -42 l38 -21 -23 -17 -23 -18 26
-28 c25 -27 44 -84 32 -96 -3 -4 -26 10 -51 31 -29 24 -47 33 -49 25 -5 -15
-33 -17 -33 -3 0 6 -7 10 -16 10 -9 0 -22 6 -28 14 -6 7 -47 33 -91 56 -102
55 -103 55 -97 85 4 24 7 25 78 25 49 0 96 -7 137 -21z m-22 -171 c4 -47 -33
-118 -61 -118 -10 0 -21 -9 -25 -19 -6 -19 -48 -33 -72 -24 -21 8 -15 34 9 41
21 5 21 5 -2 14 -23 8 -22 10 25 43 27 19 52 35 57 35 5 0 18 9 30 20 25 23
38 25 39 8z m-4581 -3 c0 -3 -10 -10 -22 -15 -18 -7 -19 -9 -5 -9 21 -1 23
-21 2 -21 -23 0 -18 -18 8 -23 19 -4 18 -4 -5 -6 -26 -1 -28 2 -28 39 0 36 3
40 25 40 14 0 25 -2 25 -5z m57 -22 l10 -28 6 28 c11 40 27 33 27 -12 0 -31
-4 -38 -17 -37 -10 0 -21 6 -25 11 -5 6 -8 5 -8 -2 0 -7 -4 -13 -10 -13 -5 0
-10 18 -10 40 0 46 14 53 27 13z m129 12 c5 -13 -36 -65 -52 -65 -3 0 1 61 5
78 3 10 43 -1 47 -13z m92 3 c32 -32 -2 -87 -40 -67 -29 16 -20 79 11 79 9 0
22 -5 29 -12z m52 -3 c0 -8 5 -15 10 -15 6 0 10 7 10 15 0 24 18 18 23 -7 4
-23 4 -23 16 2 11 23 11 22 7 -14 -6 -48 -12 -55 -31 -30 -13 17 -14 17 -15 2
0 -21 -19 -24 -24 -5 -13 40 -15 67 -6 67 5 0 10 -7 10 -15z m150 5 c0 -5 -8
-10 -17 -10 -16 0 -16 -2 -3 -11 11 -8 12 -12 3 -16 -18 -7 -16 -21 5 -26 10
-3 6 -5 -10 -6 -26 -1 -28 2 -28 39 0 36 3 40 25 40 14 0 25 -4 25 -10z m86
-32 c1 -42 -3 -46 -22 -20 -13 16 -13 16 -14 0 0 -38 -20 -16 -20 23 0 38 1
40 28 37 24 -3 27 -7 28 -40z m54 -4 c0 -19 -4 -34 -10 -34 -5 0 -10 18 -10
41 0 24 4 38 10 34 6 -3 10 -22 10 -41z m63 19 l12 -27 6 30 c6 26 7 24 8 -13
1 -47 -5 -52 -25 -25 -13 16 -13 16 -14 0 0 -38 -20 -16 -20 22 0 46 15 52 33
13z m122 16 c4 -6 1 -10 -6 -8 -31 4 -40 -2 -37 -23 2 -12 9 -24 17 -26 10 -3
12 0 8 12 -4 10 -1 16 8 16 21 0 19 -36 -2 -44 -10 -4 -24 1 -37 13 -17 17
-18 24 -8 46 12 26 45 34 57 14z m130 1 c-4 -6 -10 -8 -15 -5 -5 3 -11 1 -15
-5 -3 -5 1 -10 9 -10 9 0 16 -4 16 -10 0 -5 -7 -10 -15 -10 -23 0 -18 -18 8
-23 16 -3 13 -5 -10 -6 -31 -1 -33 1 -33 32 0 19 3 37 7 40 11 11 55 8 48 -3z
m85 -5 c20 -24 4 -65 -25 -65 -22 0 -25 4 -25 40 0 32 4 40 19 40 10 0 24 -7
31 -15z m60 -21 c0 -46 23 -41 31 7 l6 34 2 -36 c1 -44 -21 -68 -44 -49 -17
14 -21 80 -5 80 6 0 10 -16 10 -36z m125 25 c4 -6 0 -9 -11 -7 -14 2 -19 -3
-19 -22 0 -18 5 -25 18 -24 21 2 23 -12 2 -20 -18 -6 -45 19 -45 43 0 32 40
55 55 30z m83 -26 c10 -33 6 -66 -5 -35 -5 14 -33 16 -33 2 0 -5 -4 -10 -10
-10 -6 0 -6 8 -1 23 5 12 12 30 15 40 9 27 22 20 34 -20z m82 27 c0 -5 -4 -10
-10 -10 -5 0 -11 -15 -11 -32 l-2 -33 -4 30 c-2 17 -12 36 -21 43 -14 10 -11
12 16 12 18 0 32 -4 32 -10z m50 -30 c0 -22 -4 -40 -10 -40 -5 0 -10 18 -10
40 0 22 5 40 10 40 6 0 10 -18 10 -40z m98 3 c4 -40 -27 -62 -52 -37 -31 30
-11 78 29 72 14 -2 21 -12 23 -35z m65 15 l16 -23 0 23 c1 37 21 14 21 -24 0
-40 -21 -46 -38 -11 l-11 22 0 -22 c-2 -41 -21 -24 -21 17 0 45 10 51 33 18z"/>
<path d="M4696 3601 c-4 -7 -5 -15 -2 -18 9 -9 19 4 14 18 -4 11 -6 11 -12 0z"/>
<path d="M6620 3395 c0 -8 2 -15 4 -15 2 0 6 7 10 15 3 8 1 15 -4 15 -6 0 -10
-7 -10 -15z"/>
<path d="M5060 3390 c0 -11 5 -20 10 -20 6 0 10 9 10 20 0 11 -4 20 -10 20 -5
0 -10 -9 -10 -20z"/>
<path d="M4613 3262 c-33 -2 -53 -8 -53 -15 0 -18 96 -121 103 -110 7 10 12
122 6 125 -2 2 -28 2 -56 0z m30 -57 c-7 -21 -13 -19 -13 6 0 11 4 18 10 14 5
-3 7 -12 3 -20z"/>
<path d="M5060 3266 c0 -9 5 -16 10 -16 6 0 10 4 10 9 0 6 -4 13 -10 16 -5 3
-10 -1 -10 -9z"/>
<path d="M5270 3181 c0 -8 43 -41 55 -41 3 0 5 5 5 10 0 6 -7 10 -15 10 -8 0
-15 7 -15 15 0 8 -7 15 -15 15 -8 0 -15 -4 -15 -9z"/>
<path d="M6936 2941 c-7 -11 31 -41 51 -41 22 0 14 15 -16 33 -17 10 -32 13
-35 8z"/>
<path d="M7051 2916 c-12 -14 -5 -26 16 -26 15 0 18 26 4 34 -5 3 -14 0 -20
-8z"/>
<path d="M7022 2837 c-8 -9 -12 -35 -10 -69 3 -49 4 -51 16 -30 7 12 12 44 10
69 -3 40 -5 44 -16 30z"/>
<path d="M6960 2655 c0 -7 -7 -18 -16 -23 -9 -5 -16 -23 -17 -42 -2 -28 2 -34
26 -41 33 -9 43 6 32 49 -4 15 -7 37 -8 50 -2 24 -17 31 -17 7z"/>
<path d="M6920 2329 c0 -5 5 -7 10 -4 6 3 10 8 10 11 0 2 -4 4 -10 4 -5 0 -10
-5 -10 -11z"/>
<path d="M4373 3126 c2 -6 9 -11 15 -10 7 1 30 2 53 3 22 0 38 5 35 10 -8 13
-107 10 -103 -3z"/>
<path d="M4541 3004 c0 -11 3 -14 6 -6 3 7 2 16 -1 19 -3 4 -6 -2 -5 -13z"/>
<path d="M6374 2895 c-3 -14 -3 -32 0 -41 9 -24 28 -5 22 22 -4 14 -2 24 4 24
6 0 8 5 5 10 -11 17 -24 11 -31 -15z"/>
<path d="M4840 2950 c0 -5 -9 -12 -20 -15 -28 -9 -28 -65 1 -83 18 -11 24 -9
50 19 25 27 29 37 21 54 -10 22 -52 41 -52 25z m20 -54 c0 -20 -19 -31 -32
-18 -6 6 -7 15 -4 21 10 16 36 13 36 -3z"/>
<path d="M4252 2720 c1 -22 5 -40 10 -40 4 0 8 18 8 40 0 22 -4 40 -10 40 -5
0 -9 -18 -8 -40z"/>
<path d="M4250 2600 c0 -5 5 -10 10 -10 6 0 10 5 10 10 0 6 -4 10 -10 10 -5 0
-10 -4 -10 -10z"/>
<path d="M1977 2495 c-9 -31 -17 -60 -17 -65 0 -6 19 -10 41 -10 35 0 41 3 36
18 -3 9 -11 38 -18 65 -7 26 -16 47 -19 47 -3 0 -14 -25 -23 -55z"/>
<path d="M2230 2505 l0 -55 44 0 c52 0 76 19 76 59 0 39 -17 51 -72 51 l-48 0
0 -55z"/>
<path d="M3970 1980 c0 -5 5 -10 10 -10 6 0 10 5 10 10 0 6 -4 10 -10 10 -5 0
-10 -4 -10 -10z"/>
<path d="M3825 1963 c-26 -7 -46 -23 -40 -33 4 -6 41 0 103 16 6 2 12 8 12 14
0 10 -39 12 -75 3z"/>
<path d="M5440 2170 c0 -12 37 -14 44 -2 2 4 -6 9 -20 10 -13 1 -24 -3 -24 -8z"/>
<path d="M1313 1934 l-20 -69 39 -3 c22 -2 42 -2 43 0 2 2 -6 34 -19 72 l-22
69 -21 -69z"/>
<path d="M2077 1993 c-4 -3 -7 -28 -7 -55 l0 -48 49 0 c55 0 81 17 81 55 0 36
-26 55 -74 55 -23 0 -46 -3 -49 -7z"/>
<path d="M2366 1978 c-11 -15 -16 -46 -16 -95 0 -84 18 -113 70 -113 52 0 70
29 70 113 0 92 -15 117 -70 117 -29 0 -43 -6 -54 -22z"/>
<path d="M2656 1978 c-11 -15 -16 -46 -16 -95 0 -84 18 -113 70 -113 53 0 70
29 70 118 0 91 -13 112 -73 112 -26 0 -40 -6 -51 -22z"/>
<path d="M4770 1585 c0 -8 4 -15 9 -15 5 0 11 7 15 15 3 9 0 15 -9 15 -8 0
-15 -7 -15 -15z"/>
<path d="M1280 700 c0 -5 4 -10 9 -10 6 0 13 5 16 10 3 6 -1 10 -9 10 -9 0
-16 -4 -16 -10z"/>
<path d="M1376 713 c-12 -13 -6 -53 9 -53 9 0 15 9 15 24 0 26 -12 40 -24 29z"/>
<path d="M1660 700 c0 -5 5 -10 10 -10 6 0 10 5 10 10 0 6 -4 10 -10 10 -5 0
-10 -4 -10 -10z"/>
<path d="M2110 684 c0 -31 23 -28 28 4 2 15 -2 22 -12 22 -11 0 -16 -9 -16
-26z"/>
<path d="M2604 707 c-8 -21 1 -47 16 -47 19 0 23 31 7 48 -15 14 -17 14 -23
-1z"/>
</g>
</svg>
